#!OML:ASF F:\VICON\USERDATA\INSTALL\rory3\rory3.ASF
:FULLY-SPECIFIED
:DEGREES
111
root 1.3615108979974606 17.905801772178656 55.84210199825467 -3.451874267050289 0.7056749317032729 2.226320038220373
lfemur 1.5729451331402657 -5.090892348032664 -27.01051671105531
ltibia 23.623887205354634
lfoot -8.874701473384631 -2.834249759215389
ltoes -8.732063411344093
rfemur -21.132458142088304 -0.36493665165332567 19.888090971031957
rtibia 60.50276861163721
rfoot -7.762271403853698 -2.236811804035429
rtoes 4.81493431958639
lowerback 8.97639639233292 -1.4100080418321648 -2.233080417465752
upperback 0.032699941056440585 -1.6388295968539905 0.942126407894474
thorax -5.14987730291672 -0.8395516430471226 1.8523692936656122
lowerneck -16.57706059126946 -3.1565209292241923 -1.5984163670293932
upperneck 21.109726080955156 -4.086499387953158 1.499134429456106
head 9.573716355059506 -1.9278682637218791 0.29165169426699145
lclavicle 5.211674084137325e-16 -7.171277453240675e-16
lhumerus -28.21874742806527 1.7287493664498745 80.44250138584894
lradius 26.711542966540893
lwrist 7.0101943224735335
lhand -28.246402843236147 19.833137413898854
lfingers nan
lthumb -1.4628555304699589 50.13374797936016
rclavicle 3.9765470301009876e-16 -8.021574133845981e-16
rhumerus -28.45715850265308 -17.062141849296577 -79.99466056205496
rradius 31.77938796956859
rwrist 0.3660934478706426
rhand -17.73167141671495 21.721894688135386
rfingers nan
rthumb 8.673553308508469 -7.734128264671407
112
root 1.3988260457509802 17.90559873278034 56.11060316502264 -3.362617023420534 0.3759358302479008 2.391166121527209
lfemur 3.433233054467454 -5.178265618151749 -27.1771885892843
ltibia 24.046176067139232
lfoot -7.560834013259353 -2.776384232075428
ltoes -8.960824142510548
rfemur -22.29928245840783 -0.13790525174244106 20.132919831895883
rtibia 58.07628666066682
rfoot -7.942806808887857 -1.9873965651507728
rtoes 3.870779917862989
lowerback 8.948399212187033 -1.647676192868146 -2.4727954127520952
upperback 0.010936230564779006 -1.9623854565314751 1.0404207858017376
thorax -5.0957705307816905 -1.0034447376224707 2.235061875961549
lowerneck -16.610714896176287 -3.0760558738468218 -1.6814703593481466
upperneck 21.250217082156137 -3.946029864594925 1.3586647372851832
head 9.610869694333424 -1.8761716489252518 0.28447227113336515
lclavicle 5.098694261702447e-16 -7.233191822580062e-16
lhumerus -27.630698982667578 1.3636299080771606 80.31593107393456
lradius 26.931396005455436
lwrist 6.578432278886793
lhand -28.254723607780722 19.846535304158696
lfingers nan
lthumb -1.4300917134316955 50.22173754067488
rclavicle 3.911195529634176e-16 -8.020152962958299e-16
rhumerus -29.043517924237264 -17.39985574231381 -80.13171485070275
rradius 31.717707504907683
rwrist 0.23755680612503527
rhand -17.724838307987635 21.751236679277014
rfingers nan
rthumb 8.655161124068306 -7.746412492859454
113
root 1.4443937870300767 17.912062656983068 56.83275609575997 -3.1975392063068844 0.006964579807738236 2.3012845074694104
lfemur 5.005496635448758 -5.124710452564575 -26.998734965897544
ltibia 24.600001301793178
lfoot -6.651623932970743 -3.3960322046825175
ltoes -9.353070477988952
rfemur -22.950491418836943 0.12760315833456115 20.55594369008838
rtibia 54.86490221862904
rfoot -8.11731024017034 -1.8005156802839322
rtoes 2.9813826751829327
lowerback 8.87696078516064 -1.866988551066858 -2.5069205284830867
upperback -0.020847672719873478 -2.2346798160645633 1.1750641638786214
thorax -5.042148187392199 -1.142385970213274 2.541443845535646
lowerneck -16.594425528636624 -2.984770012398432 -1.7672027927975742
upperneck 21.450018401813775 -3.783304305525123 1.1852351582979397
head 9.655061911130716 -1.8169627827246237 0.2734886215948801
lclavicle 5.002215618220611e-16 -7.286762492061626e-16
lhumerus -27.115370774436844 1.1476909974237532 80.23089067314864
lradius 27.034683414431406
lwrist 6.275494501777612
lhand -28.21067526431477 20.04772808358617
lfingers nan
lthumb -1.4096918519014077 50.337865258870806
rclavicle 3.848315999908561e-16 -8.026254824059171e-16
rhumerus -29.635865002169574 -17.840201881725356 -80.17843231719904
rradius 31.697071814529732
rwrist 0.30299555403935585
rhand -17.71967373186393 21.798660179398038
rfingers nan
rthumb 8.691926997773395 -7.605927043295158
114
root 1.4525639413310376 17.908036953215227 55.68732890707835 -3.160317741419803 -0.7420690509061973 1.7485070923540194
lfemur 6.4803732376506 -4.769192243574638 -26.257896611424957
ltibia 25.256979116263302
lfoot -6.341270287398708 -4.418946870159781
ltoes -8.362710067424592
rfemur -23.037707896094982 0.5707213011166528 21.558052365442865
rtibia 51.128557594313
rfoot -8.385959772135935 -1.5792893044020744
rtoes 2.1382727804090034
lowerback 8.811906006268455 -1.9795133391066506 -2.2598736632692717
upperback -0.05079697885966 -2.3577953973556776 1.3475755398784488
thorax -4.989569344010198 -1.2059602164352574 2.7748893169844857
lowerneck -16.56484130950543 -2.9066260046766974 -1.8666200102911918
upperneck 21.679934589551802 -3.637910841531531 1.0095978029047061
head 9.707213241350287 -1.7647001578056967 0.2556680082426216
lclavicle 4.91861330879933e-16 -7.334843598504541e-16
lhumerus -26.677548714491202 0.9811645745574493 80.19231362943061
lradius 27.000550487500547
lwrist 6.133447851687466
lhand -28.234418699957462 20.091536141629316
lfingers nan
lthumb -1.3890133230016781 50.47864626021947
rclavicle 3.80036594087564e-16 -8.030876251320104e-16
rhumerus -30.20014862405895 -18.36862303457539 -80.13504735919925
rradius 31.72160156709993
rwrist 0.5333779357152739
rhand -17.70987558496098 21.864840576373084
rfingers nan
rthumb 8.680747442610288 -7.575500551808459
115
root 1.482854842761223 17.90968507396907 56.0737876522359 -3.0557438184815635 -1.225869752469985 1.2994335073995786
lfemur 7.581970396670723 -4.357483295247637 -25.42837507594063
ltibia 26.173796083231828
lfoot -6.272072357295636 -4.947088510462057
ltoes -7.691012081232097
rfemur -22.82728245718816 0.9451557200263143 22.32360106164496
rtibia 47.211915115989875
rfoot -8.75785700179072 -1.4061636764288519
rtoes 1.2950823798834539
lowerback 8.746477220285893 -2.0706281018377557 -2.013250415961599
upperback -0.07783002531808128 -2.45490591230261 1.5106110281422864
thorax -4.936504246422021 -1.2493203766936614 2.951880933019223
lowerneck -16.528027274125243 -2.8448083527855896 -1.954496665085454
upperneck 21.88489195452566 -3.517757096295683 0.8436601858953975
head 9.75157352859502 -1.7235377629072992 0.2302099226803454
lclavicle 4.850304214404076e-16 -7.375689926512141e-16
lhumerus -26.37558955465106 0.7421004692744022 80.18160367470264
lradius 26.838610227336126
lwrist 6.147450005550673
lhand -28.176957405551114 20.33099515499617
lfingers nan
lthumb -1.376955179459904 50.59026731162075
rclavicle 3.760401120269537e-16 -8.038243007539935e-16
rhumerus -30.729003139597005 -18.96832712610688 -79.99432569381783
rradius 31.78191337829538
rwrist 0.9121019382784898
rhand -17.701257997768412 21.922827770500515
rfingers nan
rthumb 8.71573920768462 -7.446769896163335
116
root 1.4942555112469984 17.90888061390869 55.64317388472603 -2.9961260307512694 -1.6789496300580056 0.5070151887121097
lfemur 8.133085803421213 -3.883591953518315 -24.176186802525798
ltibia 27.666461434479935
lfoot -6.412689533138488 -4.433364939145348
ltoes -6.880937819476926
rfemur -22.401970179229785 1.307001753497404 23.429686582953984
rtibia 43.37741712498603
rfoot -9.296303316209197 -1.5577362578449483
rtoes 0.49803817581247234
lowerback 8.70660700526862 -2.0541911532194503 -1.4601335625546166
upperback -0.09989636208759464 -2.3932668687090652 1.691429715486273
thorax -4.921137716996977 -1.226645419426925 3.0065255900579704
lowerneck -16.49180654332195 -2.807182176385927 -1.9983955513561942
upperneck 22.012609153160632 -3.4400083933257104 0.6981667589989625
head 9.776263077458388 -1.699333512762572 0.1958322397997303
lclavicle 4.8018937417980715e-16 -7.40543155285005e-16
lhumerus -26.228229908553182 0.4608541005368796 80.19162980604533
lradius 26.568801062396744
lwrist 6.28726412985553
lhand -28.19718613294625 20.319466060491468
lfingers nan
lthumb -1.3709784742775342 50.642127081892916
rclavicle 3.729703085594747e-16 -8.045731383024263e-16
rhumerus -31.20413881963586 -19.61877035387451 -79.76499871047861
rradius 31.85946937261152
rwrist 1.3495407611710686
rhand -17.694284291079644 21.9479938419714
rfingers nan
rthumb 8.691942176634205 -7.493667789258546
117
root 1.5490718983956326 17.927579160195755 57.99759605164999 -2.713148756508542 -1.5082043582858002 0.09766765785577936
lfemur 7.886157896193382 -3.625529204525847 -23.25064914246809
ltibia 29.983721592104
lfoot -6.642586672040913 -3.179848900284212
ltoes -6.777875572837278
rfemur -21.681560197773077 1.4178682573527093 23.997473550669056
rtibia 39.90001196570382
rfoot -10.015076810590593 -2.337630783709442
rtoes -0.11186236252183646
lowerback 8.629987933590224 -2.0748393471382784 -1.0025691757118613
upperback -0.11543341634336532 -2.3546686414524185 1.833864810625618
thorax -4.929289547409324 -1.2087018380422687 3.008296929862352
lowerneck -16.49070380060099 -2.7973255264139287 -2.000271844118343
upperneck 22.04109928171638 -3.412769533213308 0.5874400359219091
head 9.774421514642123 -1.6944744690442968 0.15626952444200437
lclavicle 4.781332845366499e-16 -7.419987865726383e-16
lhumerus -26.207567152040006 0.27186153847576033 80.23379492985859
lradius 26.179744091438085
lwrist 6.50957278877235
lhand -28.14758402342331 20.451945961292978
lfingers nan
lthumb -1.384133338812346 50.60880439783608
rclavicle 3.712851920863957e-16 -8.05470263298959e-16
rhumerus -31.606544554853695 -20.287737595332906 -79.47729845189711
rradius 31.93453433280093
rwrist 1.6849395975288153
rhand -17.697276189168058 21.909529698959695
rfingers nan
rthumb 8.708586012916061 -7.494986612878632
118
root 1.531374641941123 17.929742442665187 56.57899994487428 -2.6794780377619603 -1.7014270177921231 -0.9386302990984765
lfemur 7.043932031014521 -3.2113940779253474 -21.70833362616089
ltibia 33.17166737215584
lfoot -6.345697702915391 -2.4616276443860876
ltoes -6.993122280131092
rfemur -20.855005043039217 1.6609499514481179 25.08908283326132
rtibia 37.00669560855869
rfoot -10.974150255871882 -3.844392113544466
rtoes -0.52875428183247
lowerback 8.611582481015464 -1.9374836987628452 -0.17003699309475628
upperback -0.1153601751563196 -2.0792980693159473 1.9803001505764093
thorax -4.98784152462663 -1.089017970941001 2.877322457120969
lowerneck -16.500534312583117 -2.8055200243646654 -1.9387872121371705
upperneck 21.964507052465947 -3.422507944320141 0.5049507593431168
head 9.741275372963347 -1.7030436203209989 0.11550637588702274
lclavicle 4.778387888982028e-16 -7.424769740453457e-16
lhumerus -26.39493335018053 0.19828476327278022 80.28999909740806
lradius 25.662846535738637
lwrist 6.7780541976895154
lhand -28.185352083066757 20.326391411860612
lfingers nan
lthumb -1.4016059504181566 50.52526245046421
rclavicle 3.7038745871283134e-16 -8.06376754352447e-16
rhumerus -31.91642805464187 -20.90345609856717 -79.15262072211814
rradius 31.991079255924635
rwrist 1.3489225380740861
rhand -17.697287445048588 21.85490029703314
rfingers nan
rthumb 8.676997116461338 -7.638274564083308
